<svg width="30" height="23" viewBox="0 0 30 23" fill="none" xmlns="http://www.w3.org/2000/svg">
<path d="M-2.19345e-05 22.304H8.89598V21.856C5.69598 21.44 4.73598 20.096 4.73598 16.864V2.17599H4.92798L13.248 22.336H14.4L21.856 2.17599H22.016V20.032C22.016 21.312 21.216 21.76 18.944 21.856V22.304H29.984V21.856C27.296 21.76 26.656 21.248 26.656 20.032V2.27198C26.656 1.05598 27.296 0.511984 29.984 0.415985V-1.52588e-05H21.824L15.776 16.448H15.616L9.02398 -1.52588e-05H-2.19345e-05V0.415985C2.75198 0.479984 3.93598 1.95198 3.93598 3.87198V16.864C3.93598 20.096 3.00798 21.472 -2.19345e-05 21.856V22.304Z" fill="white"/>
</svg>
